<?xml version="1.0" standalone="no"?><svg xmlns="http://www.w3.org/2000/svg" viewBox="0 0 1440 320"><path fill="#f7941d" fill-opacity="1" d="M0,288L34.3,282.7C68.6,277,137,267,206,234.7C274.3,203,343,149,411,117.3C480,85,549,75,617,85.3C685.7,96,754,128,823,138.7C891.4,149,960,139,1029,133.3C1097.1,128,1166,128,1234,106.7C1302.9,85,1371,43,1406,21.3L1440,0L1440,320L1405.7,320C1371.4,320,1303,320,1234,320C1165.7,320,1097,320,1029,320C960,320,891,320,823,320C754.3,320,686,320,617,320C548.6,320,480,320,411,320C342.9,320,274,320,206,320C137.1,320,69,320,34,320L0,320Z"></path></svg>